<svg width="24" height="24" viewBox="0 0 24 24" fill="none" xmlns="http://www.w3.org/2000/svg">
<path d="M18.9419 6.25623C17.6279 5.66091 16.2407 5.23857 14.8158 5C14.6208 5.34494 14.4444 5.69983 14.2872 6.0632C12.7694 5.83686 11.2259 5.83686 9.70802 6.0632C9.55081 5.69987 9.37438 5.34498 9.17947 5C7.75362 5.24059 6.36551 5.66393 5.05017 6.25934C2.43887 10.0825 1.73099 13.8107 2.08493 17.486C3.61417 18.6041 5.32583 19.4544 7.14549 20C7.55523 19.4547 7.91779 18.8761 8.22934 18.2705C7.6376 18.0518 7.06647 17.782 6.52256 17.4642C6.66571 17.3615 6.80571 17.2556 6.941 17.1529C8.52366 17.8894 10.251 18.2713 12 18.2713C13.7489 18.2713 15.4763 17.8894 17.059 17.1529C17.1958 17.2634 17.3358 17.3692 17.4774 17.4642C16.9324 17.7825 16.3603 18.0529 15.7675 18.2721C16.0786 18.8774 16.4412 19.4555 16.8513 20C18.6726 19.4566 20.3855 18.6067 21.915 17.4875C22.3303 13.2254 21.2056 9.53144 18.9419 6.25623ZM8.67766 15.2257C7.69135 15.2257 6.8765 14.34 6.8765 13.2503C6.8765 12.1606 7.66303 11.2671 8.67452 11.2671C9.686 11.2671 10.4946 12.1606 10.4773 13.2503C10.46 14.34 9.68285 15.2257 8.67766 15.2257ZM15.3223 15.2257C14.3344 15.2257 13.5227 14.34 13.5227 13.2503C13.5227 12.1606 14.3093 11.2671 15.3223 11.2671C16.3354 11.2671 17.1376 12.1606 17.1203 13.2503C17.103 14.34 16.3275 15.2257 15.3223 15.2257Z" fill="white"/>
</svg>
