<svg width="24" height="24" viewBox="0 0 24 24" fill="none" xmlns="http://www.w3.org/2000/svg">
<path d="M10.9015 17.2145C10.9861 17.2146 11.0699 17.2314 11.148 17.2639C11.2262 17.2964 11.2971 17.344 11.3569 17.4039C11.4166 17.4638 11.464 17.5349 11.4963 17.6132C11.5286 17.6914 11.5451 17.7752 11.545 17.8598C11.5449 17.9445 11.5281 18.0282 11.4956 18.1064C11.4631 18.1845 11.4155 18.2555 11.3556 18.3152C11.2957 18.375 11.2246 18.4224 11.1463 18.4546C11.0681 18.4869 10.9843 18.5035 10.8996 18.5033C10.7287 18.5031 10.5649 18.435 10.4442 18.3139C10.3236 18.1929 10.2559 18.0289 10.2561 17.858C10.2564 17.6871 10.3245 17.5233 10.4455 17.4026C10.5666 17.2819 10.7306 17.2143 10.9015 17.2145ZM21.0068 13.2297C20.9222 13.2297 20.8384 13.213 20.7602 13.1805C20.6821 13.1481 20.6111 13.1006 20.5513 13.0407C20.4915 12.9808 20.4441 12.9097 20.4117 12.8315C20.3794 12.7533 20.3628 12.6695 20.3629 12.5849C20.3629 12.5002 20.3796 12.4165 20.4121 12.3383C20.4445 12.2601 20.492 12.1891 20.5519 12.1293C20.6118 12.0695 20.6829 12.0221 20.7611 11.9898C20.8393 11.9575 20.9231 11.9409 21.0077 11.9409C21.1786 11.941 21.3425 12.009 21.4633 12.13C21.584 12.2509 21.6518 12.4149 21.6517 12.5858C21.6516 12.7567 21.5836 12.9206 21.4626 13.0413C21.3417 13.1621 21.1777 13.2299 21.0068 13.2297ZM21.0068 10.5934C20.4784 10.5939 19.9718 10.804 19.5982 11.1776C19.2246 11.5513 19.0145 12.0579 19.014 12.5862C19.014 12.7998 19.0497 13.0125 19.1194 13.2197L12.5368 16.7241C12.3543 16.4591 12.1101 16.2424 11.8252 16.0928C11.5403 15.9431 11.2233 15.865 10.9015 15.8652C10.1416 15.8652 9.44948 16.3006 9.11398 16.9798L3.20056 13.8613C2.5754 13.5332 2.1079 12.5047 2.1574 11.5678C2.18306 11.0792 2.35173 10.6997 2.60931 10.5531C2.77248 10.4614 2.96865 10.4687 3.17765 10.5778L3.21615 10.5989C4.78365 11.4239 9.91148 14.1253 10.1278 14.2252C10.4606 14.3802 10.6457 14.4425 11.2141 14.173L21.8144 8.66016C21.9702 8.6015 22.1517 8.45208 22.1517 8.22566C22.1517 7.91216 21.8272 7.78841 21.8263 7.78841C21.2231 7.49966 20.2964 7.06608 19.3926 6.64258C17.4602 5.73783 15.2703 4.713 14.3087 4.20883C13.4782 3.77433 12.81 4.141 12.6908 4.21433L12.4598 4.32892C8.13131 6.46933 2.33798 9.3385 2.00798 9.53925C1.41856 9.89858 1.05281 10.6145 1.00515 11.5027C0.931814 12.9117 1.64956 14.3811 2.67715 14.9192L8.93065 18.144C8.99954 18.6177 9.23656 19.0508 9.59841 19.3642C9.96026 19.6776 10.4228 19.8503 10.9015 19.8508C11.4243 19.8499 11.9259 19.6439 12.2984 19.2771C12.6708 18.9103 12.8845 18.4119 12.8934 17.8892L19.7812 14.1556C20.1296 14.4287 20.5631 14.5782 21.0068 14.5782C21.5352 14.5777 22.0418 14.3676 22.4154 13.9939C22.789 13.6203 22.9992 13.1137 22.9996 12.5853C22.9992 12.0569 22.789 11.5503 22.4154 11.1767C22.0418 10.8031 21.5352 10.593 21.0068 10.5925" fill="white"/>
</svg>
