<svg width="60" height="60" viewBox="0 0 60 60" fill="none" xmlns="http://www.w3.org/2000/svg">
<g clip-path="url(#clip0_10143_17304)">
<path d="M42.2511 48.6581C42.1327 45.9347 42.0103 43.1008 41.88 40.3931C40.8419 41.5772 39.6341 42.6074 38.2881 43.4402L24.753 39.0156C17.5336 43.8704 6.78528 50.5566 0 54.9575C14.135 66.2538 34.3211 55.0404 34.3211 55.0404L36.0026 53.6866H42.4682C42.3971 52.0841 42.3261 50.3909 42.2511 48.6621V48.6581Z" fill="#A8A7FF"/>
<path d="M47.6651 12.9258C45.0244 14.6072 42.3916 16.2966 40.043 17.8201C41.7205 19.2055 43.1021 20.9303 44.0928 22.888L41.3298 30.5886C41.9297 39.3667 42.3008 50.9867 42.7626 59.9937C59.6133 53.4022 59.9962 30.3123 59.9962 30.3123L47.6651 12.9219V12.9258Z" fill="#A8A7FF"/>
<path d="M25.6783 4.96321L23.9968 6.31703H17.5312C17.7207 10.6311 17.9141 15.257 18.1194 19.6065C19.1575 18.4224 20.3654 17.3923 21.7114 16.5595L35.2464 20.984C39.0594 18.4146 43.4606 15.6082 47.6683 12.9203C52.255 9.99562 56.8535 7.08275 59.9994 5.04215C45.8644 -6.25414 25.6783 4.95926 25.6783 4.95926V4.96321Z" fill="#A8A7FF"/>
<path d="M15.9034 37.1076L18.6664 29.407C18.0664 20.6289 17.6954 9.00899 17.2336 0.00195312C0.378933 6.59343 0 29.6833 0 29.6833L12.3311 47.0738C14.9679 45.3923 17.6046 43.703 19.9532 42.1795C18.2756 40.7941 16.8941 39.0693 15.9034 37.1116V37.1076Z" fill="#A8A7FF"/>
<path d="M25.6783 4.96457L23.9968 6.31839H17.5312C17.7207 10.6324 17.9141 15.2583 18.1194 19.6079C19.1575 18.4238 20.3654 17.3936 21.7114 16.5608L36.395 1.01758C30.1703 2.47007 25.6783 4.96062 25.6783 4.96457V4.96457Z" fill="#8B89FF"/>
<path d="M47.6651 12.9238C45.0244 14.6052 42.3916 16.2946 40.043 17.8181C41.7205 19.2035 43.1021 20.9283 44.0928 22.886L59.9962 30.3143L47.6651 12.9238V12.9238Z" fill="#8B89FF"/>
<path d="M34.3241 55.0418L36.0057 53.688H42.4712C42.2817 49.3739 42.0883 44.748 41.8831 40.3984C40.8449 41.5825 39.6371 42.6127 38.2911 43.4455L23.6074 58.9888C29.8322 57.5363 34.3241 55.0457 34.3241 55.0418V55.0418Z" fill="#8B89FF"/>
<path d="M12.3311 47.074C14.9718 45.3926 17.6046 43.7033 19.9532 42.1798C18.2756 40.7944 16.8941 39.0695 15.9034 37.1118L0 29.6836L12.3311 47.074V47.074Z" fill="#8B89FF"/>
</g>
<defs>
<clipPath id="clip0_10143_17304">
<rect width="60" height="60" fill="white"/>
</clipPath>
</defs>
</svg>
