<svg width="18" height="18" viewBox="0 0 18 18" fill="none" xmlns="http://www.w3.org/2000/svg">
<path d="M5.31799 3.39806C5.35347 4.21404 5.39013 5.06313 5.42916 5.87439C5.74018 5.51961 6.10206 5.21096 6.50533 4.96143L10.5605 6.28711C12.7234 4.83253 15.9437 2.82924 17.9766 1.51066C13.7417 -1.8739 7.69384 1.48582 7.69384 1.48582L7.19005 1.89145H5.25295C5.27424 2.37158 5.29552 2.8789 5.31799 3.39688V3.39806Z" fill="white"/>
<path d="M3.69589 14.1033C4.48705 13.5995 5.27584 13.0934 5.97949 12.6369C5.47689 12.2218 5.06297 11.705 4.76614 11.1185L5.59396 8.81125C5.41421 6.18118 5.30304 2.69966 5.16468 0.00100115C0.116155 1.97592 0.00144186 8.89403 0.00144186 8.89403L3.69589 14.1045V14.1033Z" fill="white"/>
<path d="M10.2827 16.4897L10.7865 16.0841H12.7236C12.6669 14.7916 12.6089 13.4056 12.5474 12.1024C12.2364 12.4571 11.8745 12.7658 11.4713 13.0153L7.41612 11.6896C6.27372 12.4595 4.95512 13.3003 3.69447 14.1057C2.32029 14.982 0.942555 15.8547 2.10184e-05 16.4661C4.23492 19.8506 10.2827 16.4909 10.2827 16.4909V16.4897Z" fill="white"/>
<path d="M13.2119 6.85641L12.384 9.16363C12.5638 11.7937 12.675 15.2752 12.8133 17.9739C17.863 15.999 17.9766 9.08085 17.9766 9.08085L14.2821 3.87039C13.4921 4.37417 12.7022 4.88031 11.9985 5.33679C12.5011 5.75188 12.915 6.26867 13.2119 6.85523V6.85641Z" fill="white"/>
<path d="M10.2827 16.4886L10.7865 16.0829H12.7236C12.6669 14.7904 12.6089 13.4044 12.5474 12.1012C12.2364 12.456 11.8745 12.7646 11.4713 13.0141L7.07198 17.6711C8.93694 17.236 10.2827 16.4897 10.2827 16.4886V16.4886Z" fill="url(#paint0_linear_769_1155)"/>
<path d="M3.69589 14.1035C4.48705 13.5997 5.27584 13.0936 5.97949 12.6371C5.47689 12.222 5.06297 11.7052 4.76614 11.1187L0.00144186 8.89306L3.69589 14.1035V14.1035Z" fill="url(#paint1_linear_769_1155)"/>
<path d="M7.69646 1.48493L7.19268 1.89056H5.25557C5.31234 3.18312 5.37029 4.56911 5.43178 5.87231C5.74281 5.51754 6.10468 5.20889 6.50795 4.95936L10.9072 0.302347C9.04226 0.737537 7.69646 1.48375 7.69646 1.48493V1.48493Z" fill="url(#paint2_linear_769_1155)"/>
<path d="M14.2821 3.87084C13.491 4.37462 12.7022 4.88076 11.9985 5.33724C12.5011 5.75233 12.915 6.26912 13.2119 6.85568L17.9766 9.0813L14.2821 3.87084V3.87084Z" fill="url(#paint3_linear_769_1155)"/>
<defs>
<linearGradient id="paint0_linear_769_1155" x1="9.89781" y1="12.1012" x2="9.89781" y2="17.6711" gradientUnits="userSpaceOnUse">
<stop stop-color="#DBDBDB"/>
<stop offset="1" stop-color="#F9F9F9"/>
</linearGradient>
<linearGradient id="paint1_linear_769_1155" x1="2.99047" y1="8.89306" x2="2.99047" y2="14.1035" gradientUnits="userSpaceOnUse">
<stop stop-color="#DBDBDB"/>
<stop offset="1" stop-color="#F9F9F9"/>
</linearGradient>
<linearGradient id="paint2_linear_769_1155" x1="8.0814" y1="0.302347" x2="8.0814" y2="5.87231" gradientUnits="userSpaceOnUse">
<stop stop-color="#DBDBDB"/>
<stop offset="1" stop-color="#F9F9F9"/>
</linearGradient>
<linearGradient id="paint3_linear_769_1155" x1="14.9875" y1="3.87084" x2="14.9875" y2="9.0813" gradientUnits="userSpaceOnUse">
<stop stop-color="#DBDBDB"/>
<stop offset="1" stop-color="#F9F9F9"/>
</linearGradient>
</defs>
</svg>
